<svg version="1.1" id="Layer_1" xmlns="http://www.w3.org/2000/svg" xmlns:xlink="http://www.w3.org/1999/xlink" x="0px" y="0px"
	 width="100%" viewBox="0 0 267 306" enable-background="new 0 0 267 306" xml:space="preserve">
<path fill="#FCFDFC" opacity="1.000000" stroke="none" 
	d="
M268.000000,93.000000 
	C268.000000,99.354401 268.000000,105.708794 267.666565,112.582222 
	C267.555420,114.067497 267.777710,115.033752 268.000000,116.000000 
	C268.000000,179.623535 268.000000,243.247070 268.000000,306.935303 
	C179.103455,306.935303 90.206856,306.935303 1.000000,306.935303 
	C1.000000,244.646118 1.000000,182.291718 1.403377,119.468628 
	C3.844814,118.358185 5.882875,117.716438 7.920936,117.074699 
	C7.757633,116.429138 7.594331,115.783585 7.431028,115.138023 
	C5.287352,115.425354 3.143676,115.712677 1.000000,116.000000 
	C1.000000,113.629440 1.000000,111.258888 1.402465,108.444260 
	C3.284554,108.490494 5.041562,108.627167 6.195669,109.532455 
	C11.128918,113.402168 15.973864,112.285812 18.379757,106.433441 
	C19.287411,104.225563 19.977341,101.928185 20.437059,100.613670 
	C24.097481,100.613670 28.077730,101.767342 30.459658,100.309525 
	C33.182674,98.642929 34.484264,94.653877 36.561634,91.428436 
	C34.360752,91.104355 32.366589,90.810715 30.219200,90.494507 
	C31.159584,85.949387 34.196404,84.303055 37.757721,83.747536 
	C39.016273,83.551224 41.425518,84.527328 41.734600,85.479416 
	C43.438744,90.728752 46.608730,91.860184 51.541218,90.104942 
	C52.615772,89.722557 54.062855,90.387039 54.227020,90.410507 
	C58.451542,85.415138 62.391987,81.119438 65.912521,76.503479 
	C70.633522,70.313507 76.468102,68.533287 83.369812,71.624603 
	C83.963181,71.890381 84.653412,71.939896 85.197502,72.433395 
	C83.335739,76.306374 81.575127,79.835815 79.500084,83.548325 
	C78.078117,85.796768 76.970581,87.862144 75.654236,89.954254 
	C75.445419,89.980988 75.034760,90.073853 74.813095,89.772903 
	C71.681282,88.604378 68.771133,87.736801 65.590103,86.788475 
	C64.328819,91.373070 63.353302,95.374619 62.114563,99.292953 
	C60.884418,103.184113 63.122181,108.906906 66.930969,111.389648 
	C66.130257,115.466499 65.325706,119.152672 64.362534,123.181732 
	C64.011459,125.291634 63.819000,127.058640 63.375992,129.140182 
	C63.133698,131.639099 63.141949,133.823486 63.081284,136.442993 
	C65.360497,146.244553 67.708633,155.610947 70.078827,165.336945 
	C71.931892,169.166122 73.762901,172.635727 75.709427,176.445938 
	C80.120834,181.914017 84.416733,187.041473 88.723587,192.524429 
	C89.753937,194.560471 90.773338,196.240997 91.488121,197.953674 
	C90.797066,198.117783 90.410622,198.249756 89.617569,198.265991 
	C87.808258,198.124161 86.405556,198.098053 84.610092,197.975494 
	C82.884171,197.727692 81.551003,197.576340 79.878372,197.279236 
	C78.574898,196.917892 77.613419,196.690231 76.646492,196.488708 
	C71.104126,195.333542 65.560463,194.184586 59.564606,193.011932 
	C56.409512,193.105469 53.707054,193.220596 50.671600,193.382111 
	C48.863255,194.173599 47.286198,194.768585 45.929077,195.688156 
	C37.262611,201.560455 33.500050,209.953568 35.156677,220.089020 
	C36.482533,228.200729 40.533215,234.989731 49.299107,238.158936 
	C53.686718,239.701050 57.778313,241.034180 62.177734,242.568176 
	C67.659752,243.724167 72.833954,244.679276 78.422264,245.752899 
	C80.551544,245.931595 82.266708,245.991776 84.326859,246.235352 
	C87.123962,246.452652 89.576096,246.486542 92.459000,246.623260 
	C97.264267,246.420227 101.638741,246.114349 106.433075,245.845490 
	C108.532936,245.766632 110.212936,245.650757 112.173759,245.770401 
	C115.259544,248.412415 118.064507,250.818893 120.983597,253.497253 
	C121.510765,254.184433 121.923805,254.599747 122.359756,255.239594 
	C122.549515,255.716888 122.733543,255.956467 122.913986,256.535339 
	C122.581497,257.637665 122.386955,258.467010 121.940231,259.125153 
	C116.498047,267.143066 115.543396,275.588654 120.541634,283.984070 
	C125.388863,292.125824 132.697876,296.358154 142.505432,296.208527 
	C153.032959,296.047882 159.673187,290.064667 165.487503,281.922668 
	C169.453369,277.325745 173.296631,273.020111 176.767609,268.432800 
	C179.209854,265.205139 181.145798,261.594421 183.624359,258.066406 
	C188.915756,249.646759 193.890610,241.315430 199.066711,232.730255 
	C199.793488,231.311630 200.319031,230.146851 201.053909,228.694672 
	C204.192535,220.273529 207.121841,212.139771 210.099289,203.655457 
	C210.464111,202.212967 210.780792,201.121033 211.321060,199.721619 
	C211.711258,197.614960 211.877869,195.815811 212.236496,193.655746 
	C213.820328,181.369736 212.356918,169.870850 207.227966,158.546661 
	C205.898788,155.581146 204.636887,152.978119 203.302155,150.065109 
	C202.210648,148.091782 201.191940,146.428452 200.086792,144.432281 
	C194.383972,136.750946 188.767578,129.402466 183.364838,122.093292 
	C183.578476,122.132629 184.002640,122.038498 184.404907,122.117615 
	C187.535477,122.401390 190.263779,122.606041 193.378098,122.916794 
	C201.555603,124.800774 209.347092,126.578659 217.315781,128.420792 
	C217.492966,128.485031 217.867645,128.526459 218.203827,128.657257 
	C227.771637,128.053024 234.532120,123.754601 238.505920,114.836807 
	C239.430695,111.379318 240.123276,108.188011 240.882782,104.584747 
	C240.963638,102.782120 240.977554,101.391449 241.391098,99.951401 
	C244.696838,99.388885 247.590775,98.719894 250.519104,98.490677 
	C251.123459,98.443375 252.426727,100.027550 252.436752,100.871292 
	C252.500854,106.272041 253.796295,107.145958 258.737885,104.840904 
	C260.016052,104.244675 261.355835,103.780487 262.060791,103.498383 
	C262.506073,99.429573 262.889709,95.924126 263.309174,92.091240 
	C265.177399,92.453178 266.588715,92.726585 268.000000,93.000000 
z"/>
<path fill="#F9FAFA" opacity="1.000000" stroke="none" 
	d="
M268.000000,92.531342 
	C266.588715,92.726585 265.177399,92.453178 263.309174,92.091240 
	C262.889709,95.924126 262.506073,99.429573 262.060791,103.498383 
	C261.355835,103.780487 260.016052,104.244675 258.737885,104.840904 
	C253.796295,107.145958 252.500854,106.272041 252.436752,100.871292 
	C252.426727,100.027550 251.123459,98.443375 250.519104,98.490677 
	C247.590775,98.719894 244.696838,99.388885 241.227905,99.623314 
	C238.594070,95.484489 237.417923,90.451172 234.247269,88.032707 
	C229.190140,84.175316 222.806122,82.057465 216.644348,79.077858 
	C215.602112,78.788338 214.898712,78.625015 213.864090,78.286926 
	C210.685928,77.449677 207.838989,76.787209 204.604095,75.999313 
	C197.474243,75.318031 190.732315,74.762177 183.564102,74.135841 
	C180.384384,74.222343 177.630966,74.379326 174.468750,74.541176 
	C171.708130,74.844383 169.356323,75.142723 166.690231,75.369308 
	C165.511337,75.226639 164.646729,75.155716 163.654907,74.787643 
	C161.038712,72.603569 158.549728,70.716637 155.922852,68.527168 
	C154.808685,66.506989 153.832397,64.789337 153.010513,62.754173 
	C158.882385,54.957886 160.519028,46.802479 156.489594,38.113937 
	C152.633133,29.798372 145.984146,24.788408 136.738037,24.138643 
	C125.687614,23.362080 117.739563,28.792248 111.551544,37.903790 
	C107.848587,42.344112 104.432884,46.602459 100.720787,51.036171 
	C97.831108,54.830414 95.237831,58.449299 92.348587,62.278870 
	C89.801300,65.689659 87.549980,68.889763 85.298653,72.089867 
	C84.653412,71.939896 83.963181,71.890381 83.369812,71.624603 
	C76.468102,68.533287 70.633522,70.313507 65.912521,76.503479 
	C62.391987,81.119438 58.451542,85.415138 54.227020,90.410507 
	C54.062855,90.387039 52.615772,89.722557 51.541218,90.104942 
	C46.608730,91.860184 43.438744,90.728752 41.734600,85.479416 
	C41.425518,84.527328 39.016273,83.551224 37.757721,83.747536 
	C34.196404,84.303055 31.159584,85.949387 30.219200,90.494507 
	C32.366589,90.810715 34.360752,91.104355 36.561634,91.428436 
	C34.484264,94.653877 33.182674,98.642929 30.459658,100.309525 
	C28.077730,101.767342 24.097481,100.613670 20.437059,100.613670 
	C19.977341,101.928185 19.287411,104.225563 18.379757,106.433441 
	C15.973864,112.285812 11.128918,113.402168 6.195669,109.532455 
	C5.041562,108.627167 3.284554,108.490494 1.402465,108.000092 
	C1.000000,72.366844 1.000000,36.733692 1.000000,1.050269 
	C89.882835,1.050269 178.765717,1.050269 268.000000,1.050269 
	C268.000000,31.353323 268.000000,61.708004 268.000000,92.531342 
z"/>
<path fill="#F9FAFA" opacity="1.000000" stroke="none" 
	d="
M1.000000,116.375000 
	C3.143676,115.712677 5.287352,115.425354 7.431028,115.138023 
	C7.594331,115.783585 7.757633,116.429138 7.920936,117.074699 
	C5.882875,117.716438 3.844814,118.358185 1.403377,118.999969 
	C1.000000,118.250000 1.000000,117.500000 1.000000,116.375000 
z"/>
<path fill="#F9FAFA" opacity="1.000000" stroke="none" 
	d="
M268.000000,115.625000 
	C267.777710,115.033752 267.555420,114.067497 267.666565,113.050629 
	C268.000000,113.750000 268.000000,114.500000 268.000000,115.625000 
z"/>
<path fill="#FBA477" opacity="1.000000" stroke="none" 
	d="
M183.307816,258.154724 
	C181.145798,261.594421 179.209854,265.205139 176.767609,268.432800 
	C173.296631,273.020111 169.453369,277.325745 165.129242,281.854370 
	C160.718216,277.786835 157.021011,273.545898 153.134903,269.485779 
	C151.818832,268.110809 150.178772,266.677887 148.423477,266.154541 
	C140.474365,263.784607 133.415344,260.518127 130.670471,251.777222 
	C130.546524,251.382507 129.950439,251.136032 129.727234,250.508698 
	C133.260361,245.676849 136.640518,241.156815 140.222504,236.393219 
	C142.637283,232.762436 144.850235,229.375244 147.224228,225.752411 
	C147.879349,225.235825 148.373428,224.954880 149.005371,225.019806 
	C153.068863,230.350296 156.558060,235.775177 161.030258,240.208450 
	C166.659866,245.789017 173.067001,250.590515 179.201385,255.652130 
	C180.425278,256.661957 181.931686,257.329407 183.307816,258.154724 
z"/>
<path fill="#F99970" opacity="1.000000" stroke="none" 
	d="
M183.624359,258.066406 
	C181.931686,257.329407 180.425278,256.661957 179.201385,255.652130 
	C173.067001,250.590515 166.659866,245.789017 161.030258,240.208450 
	C156.558060,235.775177 153.068863,230.350296 149.072205,224.690399 
	C152.721634,216.343246 156.442062,208.671341 160.529007,201.010773 
	C162.750961,203.947266 164.268494,207.167755 166.521362,209.745605 
	C175.471039,219.986298 186.053589,228.065231 198.865463,232.984100 
	C193.890610,241.315430 188.915756,249.646759 183.624359,258.066406 
z"/>
<path fill="#FCAA7C" opacity="1.000000" stroke="none" 
	d="
M129.574265,250.820511 
	C129.950439,251.136032 130.546524,251.382507 130.670471,251.777222 
	C133.415344,260.518127 140.474365,263.784607 148.423477,266.154541 
	C150.178772,266.677887 151.818832,268.110809 153.134903,269.485779 
	C157.021011,273.545898 160.718216,277.786835 164.847595,282.025330 
	C159.673187,290.064667 153.032959,296.047882 142.505432,296.208527 
	C132.697876,296.358154 125.388863,292.125824 120.541634,283.984070 
	C115.543396,275.588654 116.498047,267.143066 121.940231,259.125153 
	C122.386955,258.467010 122.581497,257.637665 123.191948,256.453949 
	C123.691597,255.708786 123.892494,255.397537 124.064110,255.105011 
	C124.034821,255.123734 124.104050,255.130676 124.430817,255.096497 
	C126.363152,253.648392 127.968712,252.234451 129.574265,250.820511 
z"/>
<path fill="#EF7050" opacity="1.000000" stroke="none" 
	d="
M207.295242,158.909149 
	C212.356918,169.870850 213.820328,181.369736 211.888031,193.615631 
	C210.520691,193.201187 209.626144,192.528625 208.878052,191.720490 
	C204.220032,186.688416 200.463547,180.023361 194.763596,176.933578 
	C185.218643,171.759583 174.441010,168.859604 164.075134,164.726105 
	C163.721558,163.921341 163.475006,163.393082 163.204834,162.460175 
	C161.401749,156.722260 159.622330,151.388992 158.259338,146.041534 
	C163.879150,146.530350 169.000854,147.599518 172.357162,151.955078 
	C179.087982,160.689804 187.997910,161.947739 198.008987,160.193832 
	C201.085022,159.654907 204.198761,159.331329 207.295242,158.909149 
z"/>
<path fill="#38BCC3" opacity="1.000000" stroke="none" 
	d="
M85.197502,72.433395 
	C87.549980,68.889763 89.801300,65.689659 92.389183,62.664604 
	C93.150551,64.551178 93.010857,66.894226 94.097389,67.865463 
	C98.927467,72.182930 103.803123,76.587189 109.240982,80.051804 
	C115.926834,84.311539 123.187782,87.668663 130.143555,91.696396 
	C129.671219,92.829178 129.255478,93.681480 128.567245,94.755554 
	C126.586723,97.669662 124.878670,100.362007 122.850372,102.912491 
	C118.051170,99.530952 114.028526,95.438202 107.470436,97.462143 
	C105.801506,97.977203 103.260071,96.673164 101.478798,95.605522 
	C97.808517,93.405685 94.516785,90.560905 90.800217,88.456795 
	C88.666275,87.248688 85.905357,86.182076 83.605728,86.471962 
	C80.589066,86.852264 80.169716,85.500511 79.814514,83.365257 
	C81.575127,79.835815 83.335739,76.306374 85.197502,72.433395 
z"/>
<path fill="#42CBCF" opacity="1.000000" stroke="none" 
	d="
M78.008148,245.634384 
	C72.833954,244.679276 67.659752,243.724167 62.215672,242.112152 
	C62.130299,239.663696 61.857819,237.653915 62.588818,236.123383 
	C64.452072,232.222153 63.571579,228.772980 62.652100,224.746490 
	C60.793365,216.606873 57.677288,208.423050 60.730888,199.726532 
	C61.402172,197.814743 60.301773,195.280899 60.017242,193.033508 
	C65.560463,194.184586 71.104126,195.333542 76.646492,196.488708 
	C77.613419,196.690231 78.574898,196.917892 79.730972,197.666901 
	C78.619881,201.948517 76.188065,205.706802 76.221375,209.443115 
	C76.328972,221.511215 77.343277,233.571243 78.008148,245.634384 
z"/>
<path fill="#FAA478" opacity="1.000000" stroke="none" 
	d="
M216.983185,79.204056 
	C222.806122,82.057465 229.190140,84.175316 234.247269,88.032707 
	C237.417923,90.451172 238.594070,95.484489 240.828278,99.672684 
	C240.977554,101.391449 240.963638,102.782120 240.542053,104.630150 
	C238.128418,107.213318 236.122498,109.339134 234.116562,111.464935 
	C235.502289,112.677620 236.888016,113.890305 238.273727,115.102997 
	C234.532120,123.754601 227.771637,128.053024 218.238953,128.210373 
	C219.188782,124.272812 219.963120,120.624283 221.787903,117.612083 
	C225.811325,110.970535 226.138672,105.334633 220.920807,99.623802 
	C215.258133,93.426155 213.470230,86.944641 216.983185,79.204056 
z"/>
<path fill="#F68764" opacity="1.000000" stroke="none" 
	d="
M210.051147,204.006012 
	C207.121841,212.139771 204.192535,220.273529 200.726517,228.636719 
	C190.835526,213.623291 174.727875,205.745987 162.102234,193.676559 
	C162.493362,192.472855 162.947739,191.594604 163.838257,190.788452 
	C173.221359,190.143524 182.110992,191.267059 188.971924,197.063629 
	C193.402237,200.806656 197.934158,202.279572 203.202240,203.000443 
	C205.488281,203.313248 207.768372,203.669479 210.051147,204.006012 
z"/>
<path fill="#1F929C" opacity="1.000000" stroke="none" 
	d="
M70.056770,164.977356 
	C67.708633,155.610947 65.360497,146.244553 63.415787,136.482086 
	C64.744057,136.755234 65.739838,137.345963 66.581551,138.107101 
	C70.340157,141.505783 73.637840,145.657730 77.904099,148.182053 
	C82.059502,150.640762 87.201134,151.418182 91.889450,152.994186 
	C98.844963,155.332306 106.390984,156.592133 110.125366,164.365128 
	C110.774376,165.716019 113.355812,166.138519 115.283829,167.228531 
	C116.119713,168.942856 116.716484,170.418472 116.835663,171.924164 
	C114.529106,171.969269 112.697815,172.050858 110.871620,171.986877 
	C105.442749,171.796661 100.377403,171.382751 98.134102,164.863358 
	C97.532394,163.114716 94.318321,161.393112 92.168884,161.206100 
	C84.552681,160.543442 76.329399,157.462769 70.056770,164.977356 
z"/>
<path fill="#1B8E98" opacity="1.000000" stroke="none" 
	d="
M70.078827,165.336945 
	C76.329399,157.462769 84.552681,160.543442 92.168884,161.206100 
	C94.318321,161.393112 97.532394,163.114716 98.134102,164.863358 
	C100.377403,171.382751 105.442749,171.796661 110.871620,171.986877 
	C112.697815,172.050858 114.529106,171.969269 117.067238,172.119598 
	C117.893127,172.856934 118.009850,173.428894 117.739487,174.005280 
	C112.470451,175.973755 106.855240,176.720322 103.601913,182.043793 
	C102.139519,182.034378 101.076096,182.032150 99.606689,182.010101 
	C93.990196,180.662750 88.782967,179.322189 83.567810,178.013168 
	C80.917213,177.347870 78.252335,176.739456 75.593910,176.105316 
	C73.762901,172.635727 71.931892,169.166122 70.078827,165.336945 
z"/>
<path fill="#F47F5D" opacity="1.000000" stroke="none" 
	d="
M210.099304,203.655457 
	C207.768372,203.669479 205.488281,203.313248 203.202240,203.000443 
	C197.934158,202.279572 193.402237,200.806656 188.971924,197.063629 
	C182.110992,191.267059 173.221359,190.143524 163.893417,190.371231 
	C163.870331,182.588547 164.228241,175.295181 164.961914,168.021515 
	C173.269363,173.569031 181.206924,179.088425 189.130981,184.627136 
	C196.460663,189.750366 203.775894,194.894287 211.097473,200.029099 
	C210.780792,201.121033 210.464111,202.212967 210.099304,203.655457 
z"/>
<path fill="#F99970" opacity="1.000000" stroke="none" 
	d="
M204.992050,76.124741 
	C207.838989,76.787209 210.685928,77.449677 213.790741,78.689774 
	C207.675232,91.126534 203.904709,103.020676 213.406693,115.185188 
	C213.861282,115.767143 213.772598,116.756042 213.996994,117.538193 
	C215.032547,121.147659 216.089386,124.751007 217.138596,128.356552 
	C209.347092,126.578659 201.555603,124.800774 193.386963,122.554031 
	C194.358261,118.598701 196.073135,115.203232 196.967148,111.603874 
	C198.230408,106.517944 198.687271,101.235855 199.852478,96.120445 
	C201.380325,89.412987 203.262344,82.786217 204.992050,76.124741 
z"/>
<path fill="#249EA9" opacity="1.000000" stroke="none" 
	d="
M63.626537,128.825638 
	C63.819000,127.058640 64.011459,125.291634 64.827393,123.226173 
	C68.983696,123.625481 72.623047,123.992645 76.027229,125.089615 
	C83.186676,127.396660 90.192947,130.174545 97.319817,132.588776 
	C102.101318,134.208511 106.981956,135.535568 111.863449,137.441528 
	C111.801102,142.265411 111.693550,146.641357 111.149193,151.012665 
	C107.386993,149.472824 104.120911,147.789413 100.724937,146.430603 
	C91.050415,142.559586 81.406509,138.581009 71.572731,135.155243 
	C67.950897,133.893494 65.168739,132.337463 63.626537,128.825638 
z"/>
<path fill="#F6916C" opacity="1.000000" stroke="none" 
	d="
M204.604095,75.999313 
	C203.262344,82.786217 201.380325,89.412987 199.852478,96.120445 
	C198.687271,101.235855 198.230408,106.517944 196.967148,111.603874 
	C196.073135,115.203232 194.358261,118.598701 193.000946,122.447937 
	C190.263779,122.606041 187.535477,122.401390 184.441132,121.749237 
	C190.012009,108.385826 190.990875,95.055130 187.184464,81.408051 
	C186.486374,78.905220 185.073395,76.601784 183.990402,74.206314 
	C190.732315,74.762177 197.474243,75.318031 204.604095,75.999313 
z"/>
<path fill="#29A5AF" opacity="1.000000" stroke="none" 
	d="
M111.818237,136.993591 
	C106.981956,135.535568 102.101318,134.208511 97.319817,132.588776 
	C90.192947,130.174545 83.186676,127.396660 76.027229,125.089615 
	C72.623047,123.992645 68.983696,123.625481 64.986008,122.883270 
	C65.325706,119.152672 66.130257,115.466499 67.122757,111.107994 
	C68.049416,108.569328 68.788124,106.703003 69.908852,104.900024 
	C76.010796,109.295647 81.321869,114.377968 87.552078,117.774124 
	C95.702332,122.216896 104.579102,125.326897 113.150208,129.416870 
	C112.710800,132.213516 112.264519,134.603561 111.818237,136.993591 
z"/>
<path fill="#33B7BF" opacity="1.000000" stroke="none" 
	d="
M79.500084,83.548325 
	C80.169716,85.500511 80.589066,86.852264 83.605728,86.471962 
	C85.905357,86.182076 88.666275,87.248688 90.800217,88.456795 
	C94.516785,90.560905 97.808517,93.405685 101.478798,95.605522 
	C103.260071,96.673164 105.801506,97.977203 107.470436,97.462143 
	C114.028526,95.438202 118.051170,99.530952 122.787346,103.267715 
	C121.018036,107.509300 118.991493,111.253822 116.599243,114.957123 
	C105.125870,108.715111 93.949585,102.632080 82.959740,96.229073 
	C80.279999,94.667786 78.212204,92.056190 75.863045,89.927513 
	C76.970581,87.862144 78.078117,85.796768 79.500084,83.548325 
z"/>
<path fill="#47D4D6" opacity="1.000000" stroke="none" 
	d="
M49.003090,237.949936 
	C40.533215,234.989731 36.482533,228.200729 35.156677,220.089020 
	C33.500050,209.953568 37.262611,201.560455 45.929077,195.688156 
	C47.286198,194.768585 48.863255,194.173599 50.672516,193.762878 
	C50.812626,197.468018 50.624866,200.839188 50.422237,204.209457 
	C50.333561,205.684326 50.143620,207.156281 50.120716,208.631439 
	C49.971424,218.247192 55.624817,228.083130 49.018772,237.458847 
	C48.939968,237.570709 49.005135,237.783997 49.003090,237.949936 
z"/>
<path fill="#44D0D4" opacity="1.000000" stroke="none" 
	d="
M49.299107,238.158936 
	C49.005135,237.783997 48.939968,237.570709 49.018772,237.458847 
	C55.624817,228.083130 49.971424,218.247192 50.120716,208.631439 
	C50.143620,207.156281 50.333561,205.684326 50.422237,204.209457 
	C50.624866,200.839188 50.812626,197.468018 51.005508,193.716461 
	C53.707054,193.220596 56.409512,193.105469 59.564606,193.011932 
	C60.301773,195.280899 61.402172,197.814743 60.730888,199.726532 
	C57.677288,208.423050 60.793365,216.606873 62.652100,224.746490 
	C63.571579,228.772980 64.452072,232.222153 62.588818,236.123383 
	C61.857819,237.653915 62.130299,239.663696 61.907848,241.911270 
	C57.778313,241.034180 53.686718,239.701050 49.299107,238.158936 
z"/>
<path fill="#2FADB3" opacity="1.000000" stroke="none" 
	d="
M111.892937,245.534866 
	C110.212936,245.650757 108.532936,245.766632 106.421127,245.466034 
	C101.629738,236.461212 103.249283,227.454620 104.380577,218.569901 
	C105.073074,213.131302 104.472382,208.221024 101.398064,203.602325 
	C100.341530,202.015030 99.768524,200.105865 99.415939,198.243225 
	C104.887978,197.657867 109.918701,197.173004 114.963142,197.126587 
	C114.081802,202.528656 112.307625,207.521698 112.472504,212.449890 
	C112.828903,223.102966 114.179482,233.722778 114.920395,244.569412 
	C113.775909,245.033371 112.834427,245.284119 111.892937,245.534866 
z"/>
<path fill="#35B5BC" opacity="1.000000" stroke="none" 
	d="
M98.974625,198.343750 
	C99.768524,200.105865 100.341530,202.015030 101.398064,203.602325 
	C104.472382,208.221024 105.073074,213.131302 104.380577,218.569901 
	C103.249283,227.454620 101.629738,236.461212 106.001274,245.429016 
	C101.638741,246.114349 97.264267,246.420227 92.453011,246.255463 
	C92.671402,243.601212 93.462120,241.447906 93.957977,239.228714 
	C95.982597,230.167572 96.079887,221.223389 93.035095,212.248657 
	C91.525185,207.798111 90.996681,203.014603 90.024185,198.381729 
	C90.410622,198.249756 90.797066,198.117783 91.937607,198.012665 
	C94.786011,198.140930 96.880318,198.242340 98.974625,198.343750 
z"/>
<path fill="#2398A2" opacity="1.000000" stroke="none" 
	d="
M63.375992,129.140182 
	C65.168739,132.337463 67.950897,133.893494 71.572731,135.155243 
	C81.406509,138.581009 91.050415,142.559586 100.724937,146.430603 
	C104.120911,147.789413 107.386993,149.472824 111.248322,151.350922 
	C112.184952,153.525055 112.585663,155.356293 112.973610,157.579895 
	C113.655464,160.978119 114.350075,163.983978 115.044693,166.989838 
	C113.355812,166.138519 110.774376,165.716019 110.125366,164.365128 
	C106.390984,156.592133 98.844963,155.332306 91.889450,152.994186 
	C87.201134,151.418182 82.059502,150.640762 77.904099,148.182053 
	C73.637840,145.657730 70.340157,141.505783 66.581551,138.107101 
	C65.739838,137.345963 64.744057,136.755234 63.484703,136.046951 
	C63.141949,133.823486 63.133698,131.639099 63.375992,129.140182 
z"/>
<path fill="#F78F69" opacity="1.000000" stroke="none" 
	d="
M162.165512,194.002014 
	C174.727875,205.745987 190.835526,213.623291 200.517181,228.924103 
	C200.319031,230.146851 199.793488,231.311630 199.066711,232.730255 
	C186.053589,228.065231 175.471039,219.986298 166.521362,209.745605 
	C164.268494,207.167755 162.750961,203.947266 160.555389,200.662369 
	C160.752670,198.533661 161.290070,196.764694 161.916138,194.748718 
	C162.058380,194.335159 162.111938,194.168594 162.165512,194.002014 
z"/>
<path fill="#EA6646" opacity="1.000000" stroke="none" 
	d="
M207.227966,158.546661 
	C204.198761,159.331329 201.085022,159.654907 198.008987,160.193832 
	C187.997910,161.947739 179.087982,160.689804 172.357162,151.955078 
	C169.000854,147.599518 163.879150,146.530350 158.024414,145.867188 
	C157.121872,145.180573 156.870651,144.654083 157.055817,144.091705 
	C159.905258,143.570480 162.501328,143.485931 164.681351,142.490341 
	C166.994644,141.433884 168.912979,139.512619 171.427277,137.971970 
	C174.905716,138.639114 177.960663,139.303329 181.049072,140.341553 
	C181.762741,142.751053 182.411957,144.797485 183.128830,146.819962 
	C185.465103,153.411301 198.586868,155.708435 203.374969,150.375092 
	C204.636887,152.978119 205.898788,155.581146 207.227966,158.546661 
z"/>
<path fill="#38BCC3" opacity="1.000000" stroke="none" 
	d="
M89.617569,198.265991 
	C90.996681,203.014603 91.525185,207.798111 93.035095,212.248657 
	C96.079887,221.223389 95.982597,230.167572 93.957977,239.228714 
	C93.462120,241.447906 92.671402,243.601212 92.022232,246.152618 
	C89.576096,246.486542 87.123962,246.452652 84.332260,245.792816 
	C84.021927,239.642365 83.530106,234.054443 84.192886,228.607025 
	C85.431641,218.425598 82.284325,208.172882 85.002853,198.071960 
	C86.405556,198.098053 87.808258,198.124161 89.617569,198.265991 
z"/>
<path fill="#CE4A2E" opacity="1.000000" stroke="none" 
	d="
M181.015625,139.967529 
	C177.960663,139.303329 174.905716,138.639114 171.148926,137.694183 
	C163.627914,136.618607 156.808731,135.823715 149.715363,134.888062 
	C148.635040,133.828583 147.828888,132.909882 147.394180,131.828583 
	C157.311829,131.111252 166.861618,130.608566 176.401154,129.956085 
	C178.222717,129.831482 180.003845,129.115997 181.803635,128.673126 
	C181.160477,126.742699 180.517303,124.812279 180.020172,122.691849 
	C180.412170,122.291405 180.688416,122.134163 181.354111,122.047211 
	C182.192581,122.060867 182.671890,122.057419 183.151184,122.053963 
	C188.767578,129.402466 194.383972,136.750946 199.881226,144.710785 
	C198.695236,145.151657 197.592285,145.100494 196.567566,144.790680 
	C191.372406,143.219879 186.197586,141.581940 181.015625,139.967529 
z"/>
<path fill="#F99E73" opacity="1.000000" stroke="none" 
	d="
M217.315781,128.420792 
	C216.089386,124.751007 215.032547,121.147659 213.996994,117.538193 
	C213.772598,116.756042 213.861282,115.767143 213.406693,115.185188 
	C203.904709,103.020676 207.675232,91.126534 214.121964,78.864548 
	C214.898712,78.625015 215.602112,78.788338 216.644348,79.077858 
	C213.470230,86.944641 215.258133,93.426155 220.920807,99.623802 
	C226.138672,105.334633 225.811325,110.970535 221.787903,117.612083 
	C219.963120,120.624283 219.188782,124.272812 217.902786,128.079575 
	C217.867645,128.526459 217.492966,128.485031 217.315781,128.420792 
z"/>
<path fill="#F68764" opacity="1.000000" stroke="none" 
	d="
M183.364838,122.093292 
	C182.671890,122.057419 182.192581,122.060867 181.355423,121.586884 
	C180.331512,113.903130 179.465759,106.708176 179.055084,99.487328 
	C178.637192,92.139557 180.212708,84.520065 175.233841,77.948013 
	C174.643143,77.168297 174.973907,75.690521 174.877548,74.536316 
	C177.630966,74.379326 180.384384,74.222343 183.564102,74.135834 
	C185.073395,76.601784 186.486374,78.905220 187.184464,81.408051 
	C190.990875,95.055130 190.012009,108.385826 184.038879,121.670120 
	C184.002640,122.038498 183.578476,122.132629 183.364838,122.093292 
z"/>
<path fill="#F27656" opacity="1.000000" stroke="none" 
	d="
M211.321060,199.721619 
	C203.775894,194.894287 196.460663,189.750366 189.130981,184.627136 
	C181.206924,179.088425 173.269363,173.569031 164.834351,167.742340 
	C164.281418,166.629837 164.231796,165.816223 164.182159,165.002594 
	C174.441010,168.859604 185.218643,171.759583 194.763596,176.933578 
	C200.463547,180.023361 204.220032,186.688416 208.878052,191.720490 
	C209.626144,192.528625 210.520691,193.201187 211.696014,193.976532 
	C211.877869,195.815811 211.711258,197.614960 211.321060,199.721619 
z"/>
<path fill="#2FB1BA" opacity="1.000000" stroke="none" 
	d="
M75.654236,89.954254 
	C78.212204,92.056190 80.279999,94.667786 82.959740,96.229073 
	C93.949585,102.632080 105.125870,108.715111 116.695457,115.336868 
	C116.146286,118.859055 115.135201,121.960266 113.800919,124.920876 
	C106.349380,120.082954 99.156013,115.480667 92.111755,110.660477 
	C85.605553,106.208488 79.259216,101.522873 72.877258,96.577148 
	C73.619614,94.167381 74.327187,92.120613 75.034760,90.073853 
	C75.034760,90.073853 75.445419,89.980988 75.654236,89.954254 
z"/>
<path fill="#3CC4C9" opacity="1.000000" stroke="none" 
	d="
M84.610092,197.975510 
	C82.284325,208.172882 85.431641,218.425598 84.192886,228.607025 
	C83.530106,234.054443 84.021927,239.642365 83.987282,245.609406 
	C82.266708,245.991776 80.551544,245.931595 78.422264,245.752899 
	C77.343277,233.571243 76.328972,221.511215 76.221375,209.443115 
	C76.188065,205.706802 78.619881,201.948517 80.070450,197.812637 
	C81.551003,197.576340 82.884171,197.727692 84.610092,197.975510 
z"/>
<path fill="#136365" opacity="1.000000" stroke="none" 
	d="
M99.415939,198.243225 
	C96.880318,198.242340 94.786011,198.140930 92.242226,197.980530 
	C90.773338,196.240997 89.753937,194.560471 88.829666,192.492371 
	C88.924797,192.104797 89.108635,191.980698 89.521004,191.974976 
	C91.873695,191.646164 93.802788,191.204575 95.756187,191.019562 
	C106.874657,189.966629 117.998932,188.974945 129.393814,188.043625 
	C130.174530,188.674942 130.682678,189.225052 131.066406,190.064545 
	C130.627045,190.898651 130.312088,191.443405 129.674347,192.014191 
	C128.565643,192.381851 127.779694,192.723480 126.671852,193.067993 
	C125.564598,193.393631 124.779243,193.716370 123.615524,194.057251 
	C120.474586,194.946320 117.712006,195.817245 114.949417,196.688156 
	C109.918701,197.173004 104.887978,197.657867 99.415939,198.243225 
z"/>
<path fill="#F9FAFA" opacity="1.000000" stroke="none" 
	d="
M74.813095,89.772903 
	C74.327187,92.120613 73.619614,94.167381 72.628723,96.819427 
	C71.405876,99.895378 70.466354,102.366028 69.526825,104.836678 
	C68.788124,106.703003 68.049416,108.569328 67.118927,110.717308 
	C63.122181,108.906906 60.884418,103.184113 62.114563,99.292953 
	C63.353302,95.374619 64.328819,91.373070 65.590103,86.788475 
	C68.771133,87.736801 71.681282,88.604378 74.813095,89.772903 
z"/>
<path fill="#147A81" opacity="1.000000" stroke="none" 
	d="
M75.709427,176.445938 
	C78.252335,176.739456 80.917213,177.347870 83.567810,178.013168 
	C88.782967,179.322189 93.990196,180.662750 99.597107,182.377365 
	C98.936684,184.090378 98.074409,185.660889 96.781120,186.689484 
	C94.355309,188.618790 91.680107,190.234543 89.108635,191.980698 
	C89.108635,191.980698 88.924797,192.104797 88.818710,192.136871 
	C84.416733,187.041473 80.120834,181.914017 75.709427,176.445938 
z"/>
<path fill="#E66145" opacity="1.000000" stroke="none" 
	d="
M181.049072,140.341553 
	C186.197586,141.581940 191.372406,143.219879 196.567566,144.790680 
	C197.592285,145.100494 198.695236,145.151657 199.967667,145.043610 
	C201.191940,146.428452 202.210648,148.091782 203.302170,150.065109 
	C198.586868,155.708435 185.465103,153.411301 183.128830,146.819962 
	C182.411957,144.797485 181.762741,142.751053 181.049072,140.341553 
z"/>
<path fill="#CE4A2E" opacity="1.000000" stroke="none" 
	d="
M122.336838,255.015076 
	C121.923805,254.599747 121.510765,254.184433 121.024956,253.023010 
	C120.944801,249.427261 120.937416,246.577621 121.208450,243.508789 
	C123.601364,242.670074 125.715843,242.050552 127.780777,241.822250 
	C126.522171,246.519211 125.313110,250.824936 124.104050,255.130676 
	C124.104050,255.130676 124.034821,255.123734 123.771317,255.079880 
	C123.117485,255.029037 122.727158,255.022064 122.336838,255.015076 
z"/>
<path fill="#E66145" opacity="1.000000" stroke="none" 
	d="
M120.930023,243.727966 
	C120.937416,246.577621 120.944801,249.427261 120.910828,252.751144 
	C118.064507,250.818893 115.259544,248.412415 112.173759,245.770401 
	C112.834427,245.284119 113.775909,245.033371 115.312225,244.542877 
	C116.934753,244.119949 117.962448,243.936768 119.313217,243.782074 
	C120.067543,243.783035 120.498787,243.755508 120.930023,243.727966 
z"/>
<path fill="#FCAA7C" opacity="1.000000" stroke="none" 
	d="
M238.505920,114.836807 
	C236.888016,113.890305 235.502289,112.677620 234.116562,111.464935 
	C236.122498,109.339134 238.128418,107.213318 240.475098,105.042114 
	C240.123276,108.188011 239.430695,111.379318 238.505920,114.836807 
z"/>
<path fill="#BE4127" opacity="1.000000" stroke="none" 
	d="
M122.359756,255.239594 
	C122.727158,255.022064 123.117485,255.029037 123.800598,255.061157 
	C123.892494,255.397537 123.691597,255.708786 123.212723,256.101440 
	C122.733543,255.956467 122.549515,255.716888 122.359756,255.239594 
z"/>
<path fill="#42CBCF" opacity="1.000000" stroke="none" 
	d="
M101.017189,50.860809 
	C104.432884,46.602459 107.848587,42.344112 111.771065,38.209885 
	C120.142441,38.523235 126.031189,42.266975 130.893265,48.239269 
	C132.002930,49.602314 134.107712,50.695179 135.869385,50.893894 
	C143.459518,51.750065 148.472916,56.255276 150.052139,64.544815 
	C145.470261,71.039818 140.910828,77.194977 136.337311,83.327820 
	C136.323227,83.305489 136.270691,83.322418 135.911957,83.209625 
	C134.393433,81.791557 133.181259,80.528641 132.085052,79.172005 
	C129.938934,76.515984 128.266663,73.295563 125.669647,71.220779 
	C118.916832,65.825890 111.703300,61.011494 104.829445,55.761421 
	C103.238892,54.546593 102.271393,52.516014 101.017189,50.860809 
z"/>
<path fill="#47D4D6" opacity="1.000000" stroke="none" 
	d="
M150.074585,64.204971 
	C148.472916,56.255276 143.459518,51.750065 135.869385,50.893894 
	C134.107712,50.695179 132.002930,49.602314 130.893265,48.239269 
	C126.031189,42.266975 120.142441,38.523235 112.058319,38.027916 
	C117.739563,28.792248 125.687614,23.362080 136.738037,24.138643 
	C145.984146,24.788408 152.633133,29.798372 156.489594,38.113937 
	C160.519028,46.802479 158.882385,54.957886 152.727219,62.868759 
	C151.551224,63.602230 150.812897,63.903603 150.074585,64.204971 
z"/>
<path fill="#3CC4C9" opacity="1.000000" stroke="none" 
	d="
M100.720787,51.036171 
	C102.271393,52.516014 103.238892,54.546593 104.829445,55.761421 
	C111.703300,61.011494 118.916832,65.825890 125.669647,71.220779 
	C128.266663,73.295563 129.938934,76.515984 132.085052,79.172005 
	C133.181259,80.528641 134.393433,81.791557 135.776184,83.501480 
	C134.066162,86.409386 132.133148,88.912659 130.200150,91.415932 
	C123.187782,87.668663 115.926834,84.311539 109.240982,80.051804 
	C103.803123,76.587189 98.927467,72.182930 94.097389,67.865463 
	C93.010857,66.894226 93.150551,64.551178 92.685150,62.453915 
	C95.237831,58.449299 97.831108,54.830414 100.720787,51.036171 
z"/>
<path fill="#F47F5D" opacity="1.000000" stroke="none" 
	d="
M174.468750,74.541183 
	C174.973907,75.690521 174.643143,77.168297 175.233841,77.948013 
	C180.212708,84.520065 178.637192,92.139557 179.055084,99.487328 
	C179.465759,106.708176 180.331512,113.903130 180.996246,121.569778 
	C180.688416,122.134163 180.412170,122.291405 179.606018,122.692078 
	C177.373077,122.826363 175.700333,122.770401 174.020248,122.330124 
	C173.715134,120.531616 173.898605,118.612480 173.036270,117.790543 
	C169.286606,114.216522 168.986710,109.738304 168.997665,105.075493 
	C169.015198,97.612717 170.825562,90.111176 168.070969,82.705215 
	C167.236603,80.461945 167.333939,77.872139 167.004517,75.441055 
	C169.356323,75.142723 171.708130,74.844383 174.468750,74.541183 
z"/>
<path fill="#F27656" opacity="1.000000" stroke="none" 
	d="
M166.690247,75.369308 
	C167.333939,77.872139 167.236603,80.461945 168.070969,82.705215 
	C170.825562,90.111176 169.015198,97.612717 168.997665,105.075493 
	C168.986710,109.738304 169.286606,114.216522 173.036270,117.790543 
	C173.898605,118.612480 173.715134,120.531616 173.576050,122.415802 
	C169.426666,123.249725 165.714142,123.613670 161.950836,123.594841 
	C161.266113,121.048386 160.166489,118.901970 160.085571,116.717804 
	C159.842987,110.170967 159.739456,103.596336 160.068787,97.057083 
	C160.424164,90.000572 161.329773,82.971756 162.212860,75.810478 
	C162.880951,75.488327 163.331543,75.286560 163.782120,75.084793 
	C164.646729,75.155716 165.511337,75.226639 166.690247,75.369308 
z"/>
<path fill="#136365" opacity="1.000000" stroke="none" 
	d="
M150.052139,64.544815 
	C150.812897,63.903603 151.551224,63.602230 152.572830,63.186272 
	C153.832397,64.789337 154.808685,66.506989 155.910187,68.967560 
	C156.016403,72.029686 155.997375,74.348900 155.669159,76.800476 
	C154.914490,76.966393 154.469040,76.999939 153.816711,76.782257 
	C152.108963,77.155182 150.608078,77.779350 148.859421,78.645393 
	C145.407166,80.293396 142.202682,81.699524 138.557037,83.125229 
	C137.527725,83.213249 136.939575,83.281700 136.351410,83.350143 
	C140.910828,77.194977 145.470261,71.039818 150.052139,64.544815 
z"/>
<path fill="#147A81" opacity="1.000000" stroke="none" 
	d="
M155.978348,76.668106 
	C155.997375,74.348900 156.016403,72.029686 156.048080,69.270088 
	C158.549728,70.716637 161.038712,72.603569 163.654907,74.787659 
	C163.331543,75.286560 162.880951,75.488327 161.820953,75.777435 
	C159.467163,76.132545 157.722748,76.400322 155.978348,76.668106 
z"/>
<path fill="#136365" opacity="1.000000" stroke="none" 
	d="
M161.827484,194.995712 
	C161.290070,196.764694 160.752670,198.533661 160.188873,200.651047 
	C156.442062,208.671341 152.721634,216.343246 148.934357,224.344543 
	C148.373428,224.954880 147.879349,225.235825 146.867706,225.696548 
	C145.944016,224.952515 144.982437,223.833267 145.226944,223.138351 
	C146.342270,219.968109 144.914230,218.614807 142.106796,217.648361 
	C142.428009,216.561935 142.744705,215.789352 143.330811,214.802597 
	C144.424149,212.809296 145.331436,211.063431 146.057404,209.245178 
	C149.015991,201.835434 151.919037,194.403549 155.175690,187.132324 
	C158.097931,189.459442 156.631912,194.956970 161.827484,194.995712 
z"/>
<path fill="#0F7278" opacity="1.000000" stroke="none" 
	d="
M142.102295,217.962204 
	C144.914230,218.614807 146.342270,219.968109 145.226944,223.138351 
	C144.982437,223.833267 145.944016,224.952515 146.706665,225.932190 
	C144.850235,229.375244 142.637283,232.762436 139.847168,236.507019 
	C136.609406,237.651245 133.948807,238.438110 131.196808,238.861176 
	C131.079590,238.000809 131.053772,237.504227 131.293976,236.817291 
	C132.381607,235.086945 133.203201,233.546997 134.296478,231.808258 
	C137.079544,227.060379 139.590912,222.511292 142.102295,217.962204 
z"/>
<path fill="#BE4127" opacity="1.000000" stroke="none" 
	d="
M131.288208,239.224976 
	C133.948807,238.438110 136.609406,237.651245 139.645340,236.750595 
	C136.640518,241.156815 133.260361,245.676849 129.727234,250.508698 
	C127.968712,252.234451 126.363152,253.648392 124.430817,255.096497 
	C125.313110,250.824936 126.522171,246.519211 127.991821,241.654633 
	C128.853622,240.697510 129.454849,240.299240 130.306320,239.875061 
	C130.766647,239.611893 130.976715,239.374634 131.206543,239.165771 
	C131.226288,239.194153 131.288208,239.224976 131.288208,239.224976 
z"/>
<path fill="#FCFDFC" opacity="1.000000" stroke="none" 
	d="
M131.190811,189.775177 
	C130.682678,189.225052 130.174530,188.674942 129.273849,187.758331 
	C127.972984,186.571838 127.064667,185.751801 126.038544,184.609772 
	C123.322678,180.858780 120.724625,177.429810 118.126572,174.000839 
	C118.009850,173.428894 117.893127,172.856934 117.544830,172.089539 
	C116.716484,170.418472 116.119713,168.942856 115.283813,167.228546 
	C114.350075,163.983978 113.655464,160.978119 113.222137,157.325989 
	C115.334557,153.449844 117.185692,150.219971 119.363266,146.922852 
	C122.494995,144.000488 125.300285,141.145370 128.437744,138.173737 
	C134.136276,135.413498 139.502625,132.769791 145.005005,130.386169 
	C145.768280,131.094559 146.395523,131.542862 147.022751,131.991180 
	C147.828888,132.909882 148.635040,133.828583 149.840637,135.196930 
	C152.366531,138.473572 154.492981,141.300583 156.619431,144.127594 
	C156.870651,144.654083 157.121872,145.180573 157.608002,145.881378 
	C159.622330,151.388992 161.401749,156.722260 162.983887,162.751617 
	C160.176453,167.293243 157.566330,171.138763 154.693283,175.180786 
	C151.276520,178.245773 148.122650,181.114243 144.626587,184.058533 
	C139.919861,186.014633 135.555328,187.894913 131.190811,189.775177 
z"/>
<path fill="#13595C" opacity="1.000000" stroke="none" 
	d="
M154.956192,174.984299 
	C157.566330,171.138763 160.176453,167.293243 163.007538,163.156250 
	C163.475006,163.393082 163.721558,163.921341 164.075134,164.726105 
	C164.231796,165.816223 164.281418,166.629837 164.458588,167.722641 
	C164.228241,175.295181 163.870331,182.588547 163.457275,190.299133 
	C162.947739,191.594604 162.493362,192.472855 162.102234,193.676559 
	C162.111938,194.168594 162.058380,194.335159 161.916153,194.748718 
	C156.631912,194.956970 158.097931,189.459442 155.210129,186.673508 
	C154.926331,182.369553 154.941254,178.676926 154.956192,174.984299 
z"/>
<path fill="#BE4127" opacity="1.000000" stroke="none" 
	d="
M119.036827,146.990097 
	C117.185692,150.219971 115.334557,153.449844 113.234894,156.933624 
	C112.585663,155.356293 112.184952,153.525055 111.685120,151.355560 
	C111.693550,146.641357 111.801102,142.265411 111.863449,137.441528 
	C112.264519,134.603561 112.710800,132.213516 113.342064,129.130280 
	C113.726067,127.311874 113.925095,126.186676 114.124115,125.061478 
	C115.135201,121.960266 116.146286,118.859055 117.061157,115.378098 
	C118.991493,111.253822 121.018036,107.509300 123.107605,103.409561 
	C124.878670,100.362007 126.586723,97.669662 128.613113,95.190872 
	C130.297211,98.610794 131.662979,101.817162 132.981415,105.381042 
	C131.879776,107.994080 130.568451,110.167244 129.814667,112.519089 
	C126.140297,123.983223 122.614929,135.495117 119.036827,146.990097 
z"/>
<path fill="#CE4A2E" opacity="1.000000" stroke="none" 
	d="
M133.028748,105.023514 
	C131.662979,101.817162 130.297211,98.610794 128.885590,94.969109 
	C129.255478,93.681480 129.671219,92.829178 130.143555,91.696396 
	C132.133148,88.912659 134.066162,86.409386 136.134933,83.614273 
	C136.270691,83.322418 136.323227,83.305489 136.337311,83.327820 
	C136.939575,83.281700 137.527725,83.213249 138.598206,83.466553 
	C140.073807,85.866829 141.067078,87.945351 142.044861,90.266739 
	C142.029343,90.509613 141.992661,90.994965 141.716202,91.186386 
	C140.609680,93.242661 139.779602,95.107506 138.657410,97.133331 
	C137.569885,98.856827 136.774506,100.419342 135.702225,102.122627 
	C134.626465,103.183434 133.827606,104.103470 133.028748,105.023514 
z"/>
<path fill="#0F7278" opacity="1.000000" stroke="none" 
	d="
M126.156349,184.931778 
	C127.064667,185.751801 127.972984,186.571838 129.001266,187.677155 
	C117.998932,188.974945 106.874657,189.966629 95.756187,191.019562 
	C93.802788,191.204575 91.873695,191.646164 89.521004,191.974976 
	C91.680107,190.234543 94.355309,188.618790 96.781120,186.689484 
	C98.074409,185.660889 98.936684,184.090378 100.003090,182.397186 
	C101.076096,182.032150 102.139519,182.034378 103.873901,182.318405 
	C111.748703,183.377396 118.952522,184.154587 126.156349,184.931778 
z"/>
<path fill="#1D868D" opacity="1.000000" stroke="none" 
	d="
M126.038544,184.609772 
	C118.952522,184.154587 111.748703,183.377396 104.272888,182.325592 
	C106.855240,176.720322 112.470451,175.973755 117.739487,174.005280 
	C120.724625,177.429810 123.322678,180.858780 126.038544,184.609772 
z"/>
<path fill="#2CAAB4" opacity="1.000000" stroke="none" 
	d="
M113.800919,124.920876 
	C113.925095,126.186676 113.726067,127.311874 113.335190,128.723663 
	C104.579102,125.326897 95.702332,122.216896 87.552078,117.774124 
	C81.321869,114.377968 76.010796,109.295647 69.908859,104.900024 
	C70.466354,102.366028 71.405876,99.895378 72.593933,97.182434 
	C79.259216,101.522873 85.605553,106.208488 92.111755,110.660477 
	C99.156013,115.480667 106.349380,120.082954 113.800919,124.920876 
z"/>
<path fill="#29A5AF" opacity="1.000000" stroke="none" 
	d="
M118.990128,243.753571 
	C117.962448,243.936768 116.934753,244.119949 115.515221,244.329666 
	C114.179482,233.722778 112.828903,223.102966 112.472504,212.449890 
	C112.307625,207.521698 114.081802,202.528656 114.963142,197.126587 
	C117.712006,195.817245 120.474586,194.946320 123.574020,194.426529 
	C120.467186,203.623779 118.051697,212.356552 119.707687,222.278992 
	C120.863487,229.204376 119.325104,236.579391 118.990128,243.753571 
z"/>
<path fill="#E66145" opacity="1.000000" stroke="none" 
	d="
M157.055817,144.091705 
	C154.492981,141.300583 152.366531,138.473572 150.114822,135.337692 
	C156.808731,135.823715 163.627914,136.618607 170.725449,137.691254 
	C168.912979,139.512619 166.994644,141.433884 164.681351,142.490341 
	C162.501328,143.485931 159.905258,143.570480 157.055817,144.091705 
z"/>
<path fill="#BE4127" opacity="1.000000" stroke="none" 
	d="
M147.394180,131.828583 
	C146.395523,131.542862 145.768280,131.094559 145.125122,130.116974 
	C145.415451,129.084213 145.721695,128.580719 146.364014,128.059540 
	C147.489319,127.716194 148.278534,127.390533 149.468933,127.053680 
	C153.913956,126.020874 157.957794,124.999245 162.001617,123.977615 
	C165.714142,123.613670 169.426666,123.249725 173.583374,122.800110 
	C175.700333,122.770401 177.373077,122.826363 179.459991,122.882088 
	C180.517303,124.812279 181.160477,126.742699 181.803635,128.673126 
	C180.003845,129.115997 178.222717,129.831482 176.401154,129.956085 
	C166.861618,130.608566 157.311829,131.111252 147.394180,131.828583 
z"/>
<path fill="#229096" opacity="1.000000" stroke="none" 
	d="
M131.066406,190.064545 
	C135.555328,187.894913 139.919861,186.014633 144.936951,184.215759 
	C148.962646,188.368958 144.660370,190.200836 142.920349,192.438492 
	C138.811905,197.721939 138.677887,210.012787 143.061401,215.016754 
	C142.744705,215.789352 142.428009,216.561935 142.106812,217.648361 
	C139.590912,222.511292 137.079544,227.060379 133.902893,231.753510 
	C132.491608,230.264908 131.033005,228.588943 131.129150,227.007523 
	C131.457184,221.613235 133.022400,216.226120 132.820251,210.885300 
	C132.580856,204.559692 130.997803,198.284943 129.997116,191.988144 
	C130.312088,191.443405 130.627045,190.898651 131.066406,190.064545 
z"/>
<path fill="#249EA9" opacity="1.000000" stroke="none" 
	d="
M119.313217,243.782074 
	C119.325104,236.579391 120.863487,229.204376 119.707687,222.278992 
	C118.051697,212.356552 120.467186,203.623779 123.952377,194.408386 
	C124.779243,193.716370 125.564598,193.393631 126.673767,193.525803 
	C126.531418,201.223587 125.750458,208.464203 125.698181,215.710068 
	C125.655952,221.561935 126.252670,227.455612 127.110771,233.250076 
	C127.320297,234.664932 129.664963,235.763611 131.027939,237.007660 
	C131.053772,237.504227 131.079590,238.000809 131.196808,238.861176 
	C131.288208,239.224976 131.226288,239.194153 130.961075,239.193298 
	C130.377457,239.333740 130.164185,239.569901 130.056061,239.900955 
	C129.454849,240.299240 128.853622,240.697510 128.041367,241.263412 
	C125.715843,242.050552 123.601364,242.670074 121.208450,243.508789 
	C120.498787,243.755508 120.067543,243.783035 119.313217,243.782074 
z"/>
<path fill="#2398A2" opacity="1.000000" stroke="none" 
	d="
M131.293976,236.817291 
	C129.664963,235.763611 127.320297,234.664932 127.110771,233.250076 
	C126.252670,227.455612 125.655952,221.561935 125.698181,215.710068 
	C125.750458,208.464203 126.531418,201.223587 126.995667,193.522919 
	C127.779694,192.723480 128.565643,192.381851 129.674347,192.014191 
	C130.997803,198.284943 132.580856,204.559692 132.820251,210.885300 
	C133.022400,216.226120 131.457184,221.613235 131.129150,227.007523 
	C131.033005,228.588943 132.491608,230.264908 133.631210,231.952286 
	C133.203201,233.546997 132.381607,235.086945 131.293976,236.817291 
z"/>
<path fill="#EF7050" opacity="1.000000" stroke="none" 
	d="
M161.950836,123.594833 
	C157.957794,124.999245 153.913956,126.020874 149.139801,126.868561 
	C147.987030,125.847351 147.114090,124.945091 147.209778,124.161049 
	C148.621307,112.595413 145.993393,101.692825 141.992661,90.994965 
	C141.992661,90.994965 142.029343,90.509613 142.339661,90.110992 
	C145.448288,85.934509 148.246582,82.156654 151.342163,78.234314 
	C152.434174,77.737709 153.228867,77.385605 154.023575,77.033493 
	C154.469040,76.999939 154.914490,76.966393 155.669159,76.800476 
	C157.722748,76.400322 159.467163,76.132545 161.603455,75.897812 
	C161.329773,82.971756 160.424164,90.000572 160.068787,97.057083 
	C159.739456,103.596336 159.842987,110.170967 160.085571,116.717804 
	C160.166489,118.901970 161.266113,121.048386 161.950836,123.594833 
z"/>
<path fill="#E05B3E" opacity="1.000000" stroke="none" 
	d="
M151.044876,78.378807 
	C148.246582,82.156654 145.448288,85.934509 142.355179,89.868118 
	C141.067078,87.945351 140.073807,85.866829 139.039368,83.446976 
	C142.202682,81.699524 145.407166,80.293396 149.180206,78.595276 
	C150.180786,78.328453 150.612839,78.353630 151.044876,78.378807 
z"/>
<path fill="#147A81" opacity="1.000000" stroke="none" 
	d="
M151.342163,78.234314 
	C150.612839,78.353630 150.180786,78.328453 149.427963,78.353394 
	C150.608078,77.779350 152.108963,77.155182 153.816711,76.782257 
	C153.228867,77.385605 152.434174,77.737709 151.342163,78.234314 
z"/>
<path fill="#1D868D" opacity="1.000000" stroke="none" 
	d="
M143.330811,214.802597 
	C138.677887,210.012787 138.811905,197.721939 142.920349,192.438492 
	C144.660370,190.200836 148.962646,188.368958 145.279144,184.139938 
	C148.122650,181.114243 151.276520,178.245773 154.693283,175.180786 
	C154.941254,178.676926 154.926331,182.369553 154.876984,186.520996 
	C151.919037,194.403549 149.015991,201.835434 146.057404,209.245178 
	C145.331436,211.063431 144.424149,212.809296 143.330811,214.802597 
z"/>
<path fill="#0F7278" opacity="1.000000" stroke="none" 
	d="
M130.306320,239.875061 
	C130.164185,239.569901 130.377457,239.333740 130.941330,239.164917 
	C130.976715,239.374634 130.766647,239.611893 130.306320,239.875061 
z"/>
<path fill="#E66145" opacity="1.000000" stroke="none" 
	d="
M146.027939,128.077225 
	C145.721695,128.580719 145.415451,129.084213 144.989090,129.856903 
	C139.502625,132.769791 134.136276,135.413498 128.407623,137.752716 
	C129.842163,132.673218 131.421524,127.801735 133.487167,123.146011 
	C136.525513,116.297997 138.511215,109.435585 135.979126,101.981865 
	C136.774506,100.419342 137.569885,98.856827 138.985779,97.308716 
	C140.737503,101.355362 142.482117,105.331406 142.857788,109.432846 
	C143.437317,115.759895 142.083160,122.334496 146.027939,128.077225 
z"/>
<path fill="#E05B3E" opacity="1.000000" stroke="none" 
	d="
M135.702225,102.122627 
	C138.511215,109.435585 136.525513,116.297997 133.487167,123.146011 
	C131.421524,127.801735 129.842163,132.673218 128.075455,137.869232 
	C125.300285,141.145370 122.494995,144.000488 119.363266,146.922852 
	C122.614929,135.495117 126.140297,123.983223 129.814667,112.519089 
	C130.568451,110.167244 131.879776,107.994080 132.981415,105.381035 
	C133.827606,104.103470 134.626465,103.183434 135.702225,102.122627 
z"/>
<path fill="#EA6646" opacity="1.000000" stroke="none" 
	d="
M146.364014,128.059540 
	C142.083160,122.334496 143.437317,115.759895 142.857788,109.432846 
	C142.482117,105.331406 140.737503,101.355362 139.277908,97.147736 
	C139.779602,95.107506 140.609680,93.242661 141.716202,91.186386 
	C145.993393,101.692825 148.621307,112.595413 147.209778,124.161049 
	C147.114090,124.945091 147.987030,125.847351 148.738617,126.879745 
	C148.278534,127.390533 147.489319,127.716194 146.364014,128.059540 
z"/>
</svg>